<svg xmlns="http://www.w3.org/2000/svg" width="298.666" height="362.403" viewBox="0 0 298.666 362.403">
  <g id="balloon" transform="translate(-106.667)">
    <g id="Group_47" data-name="Group 47">
      <g id="Group_46" data-name="Group 46">
        <path id="Path_8" data-name="Path 8" d="M405.333,149.333C405.333,66.99,338.344,0,256,0S106.667,66.99,106.667,149.333c0,71.311,53.411,174.2,129.671,189.78-23.295,31.053,62.621,31.054,39.326,0C351.922,323.536,405.333,220.645,405.333,149.333ZM256,348.448ZM256,320c-67.729,0-128-95.438-128-170.667a128,128,0,0,1,256,0C384,224.563,323.729,320,256,320Z" fill="#8899a6"/>
        <path id="Path_9" data-name="Path 9" d="M208.583,53.792a106.179,106.179,0,0,0-59.25,95.542,10.667,10.667,0,1,0,21.334,0A84.947,84.947,0,0,1,218.084,72.9a10.668,10.668,0,1,0-9.5-19.1Z" fill="#8899a6"/>
      </g>
    </g>
  </g>
</svg>
