<svg xmlns="http://www.w3.org/2000/svg" width="512" height="460.8" viewBox="0 0 512 460.8">
  <g id="calendar" transform="translate(0 -51.2)">
    <g id="Group_61" data-name="Group 61">
      <g id="Group_60" data-name="Group 60">
        <path id="Path_10" data-name="Path 10" d="M486.4,51.2H435.2c75.684.893-409.078.314-358.4,0H25.6C10.24,51.2,0,61.44,0,76.8V486.4C0,501.76,10.24,512,25.6,512H486.4c12.8,0,25.6-10.24,25.6-25.6V76.8C512,61.44,499.2,51.2,486.4,51.2ZM460.8,460.8H51.2V153.6H460.8V460.8Z" fill="#8899a6"/>
      </g>
    </g>
    <rect id="Rectangle_36" data-name="Rectangle 36" width="445" height="352" rx="20" transform="translate(34 128)" fill="none"/>
    <g id="Group_62" data-name="Group 62" transform="translate(26 -3)">
      <g id="Ellipse_22" data-name="Ellipse 22" transform="translate(78 189)" fill="#8899a6" stroke="#707070" stroke-width="1">
        <circle cx="23" cy="23" r="23" stroke="none"/>
        <circle cx="23" cy="23" r="22.5" fill="none"/>
      </g>
      <g id="Ellipse_23" data-name="Ellipse 23" transform="translate(208 189)" fill="#8899a6" stroke="#707070" stroke-width="1">
        <circle cx="23" cy="23" r="23" stroke="none"/>
        <circle cx="23" cy="23" r="22.5" fill="none"/>
      </g>
      <g id="Ellipse_24" data-name="Ellipse 24" transform="translate(338 189)" fill="#8899a6" stroke="#707070" stroke-width="1">
        <circle cx="23" cy="23" r="23" stroke="none"/>
        <circle cx="23" cy="23" r="22.5" fill="none"/>
      </g>
      <g id="Ellipse_25" data-name="Ellipse 25" transform="translate(338 289)" fill="#8899a6" stroke="#707070" stroke-width="1">
        <circle cx="23" cy="23" r="23" stroke="none"/>
        <circle cx="23" cy="23" r="22.5" fill="none"/>
      </g>
      <g id="Ellipse_26" data-name="Ellipse 26" transform="translate(208 289)" fill="#8899a6" stroke="#707070" stroke-width="1">
        <circle cx="23" cy="23" r="23" stroke="none"/>
        <circle cx="23" cy="23" r="22.5" fill="none"/>
      </g>
      <g id="Ellipse_27" data-name="Ellipse 27" transform="translate(78 289)" fill="#8899a6" stroke="#707070" stroke-width="1">
        <circle cx="23" cy="23" r="23" stroke="none"/>
        <circle cx="23" cy="23" r="22.5" fill="none"/>
      </g>
      <g id="Ellipse_28" data-name="Ellipse 28" transform="translate(78 379)" fill="#8899a6" stroke="#707070" stroke-width="1">
        <circle cx="23" cy="23" r="23" stroke="none"/>
        <circle cx="23" cy="23" r="22.5" fill="none"/>
      </g>
      <g id="Ellipse_29" data-name="Ellipse 29" transform="translate(208 379)" fill="#8899a6" stroke="#707070" stroke-width="1">
        <circle cx="23" cy="23" r="23" stroke="none"/>
        <circle cx="23" cy="23" r="22.5" fill="none"/>
      </g>
    </g>
  </g>
</svg>
