<svg xmlns="http://www.w3.org/2000/svg" width="2900" height="100" viewBox="0 0 2900 100">
  <g id="Group_48" data-name="Group 48" transform="translate(-397 -1219)">
    <rect id="Rectangle_28" data-name="Rectangle 28" width="100" height="96" transform="translate(1897 1219)" fill="none"/>
    <rect id="Rectangle_27" data-name="Rectangle 27" width="100" height="96" transform="translate(1997 1219)" fill="none"/>
    <rect id="Rectangle_3" data-name="Rectangle 3" width="100" height="96" transform="translate(697 1219)" fill="none"/>
    <rect id="Rectangle_26" data-name="Rectangle 26" width="100" height="96" transform="translate(2097 1219)" fill="none"/>
    <rect id="Rectangle_4" data-name="Rectangle 4" width="100" height="96" transform="translate(797 1219)" fill="none"/>
    <rect id="Rectangle_30" data-name="Rectangle 30" width="100" height="96" transform="translate(597 1219)" fill="none"/>
    <rect id="Rectangle_25" data-name="Rectangle 25" width="100" height="96" transform="translate(2197 1219)" fill="none"/>
    <rect id="Rectangle_5" data-name="Rectangle 5" width="100" height="96" transform="translate(897 1219)" fill="none"/>
    <rect id="Rectangle_24" data-name="Rectangle 24" width="100" height="96" transform="translate(2297 1219)" fill="none"/>
    <rect id="Rectangle_6" data-name="Rectangle 6" width="100" height="96" transform="translate(997 1219)" fill="none"/>
    <rect id="Rectangle_23" data-name="Rectangle 23" width="100" height="96" transform="translate(2397 1219)" fill="none"/>
    <rect id="Rectangle_22" data-name="Rectangle 22" width="100" height="96" transform="translate(2497 1219)" fill="none"/>
    <rect id="Rectangle_8" data-name="Rectangle 8" width="100" height="96" transform="translate(1197 1219)" fill="none"/>
    <rect id="Rectangle_20" data-name="Rectangle 20" width="100" height="96" transform="translate(2597 1219)" fill="none"/>
    <rect id="Rectangle_9" data-name="Rectangle 9" width="100" height="96" transform="translate(1297 1219)" fill="none"/>
    <rect id="Rectangle_21" data-name="Rectangle 21" width="100" height="96" transform="translate(2697 1219)" fill="none"/>
    <rect id="Rectangle_10" data-name="Rectangle 10" width="100" height="96" transform="translate(1397 1219)" fill="none"/>
    <rect id="Rectangle_11" data-name="Rectangle 11" width="100" height="96" transform="translate(1497 1219)" fill="none"/>
    <rect id="Rectangle_12" data-name="Rectangle 12" width="100" height="96" transform="translate(1597 1219)" fill="none"/>
    <rect id="Rectangle_13" data-name="Rectangle 13" width="100" height="96" transform="translate(1697 1219)" fill="none"/>
    <rect id="Rectangle_14" data-name="Rectangle 14" width="100" height="96" transform="translate(1797 1219)" fill="none"/>
    <rect id="Rectangle_19" data-name="Rectangle 19" width="100" height="96" transform="translate(2897 1219)" fill="none"/>
    <rect id="Rectangle_17" data-name="Rectangle 17" width="100" height="96" transform="translate(2997 1219)" fill="none"/>
    <rect id="Rectangle_16" data-name="Rectangle 16" width="100" height="96" transform="translate(3097 1219)" fill="none"/>
    <rect id="Rectangle_15" data-name="Rectangle 15" width="100" height="96" transform="translate(3197 1219)" fill="none"/>
    <g id="Group_44" data-name="Group 44" transform="translate(397 1219)">
      <rect id="Rectangle_29" data-name="Rectangle 29" width="100" height="96" fill="none"/>
      <g id="is-eth" transform="translate(40.251 36.413)">
        <path id="Path_1" data-name="Path 1" d="M12,18.1,22.247,2,32.495,18.1,22.247,23.959Zm10.247,5.856V2" transform="translate(-12 -2)" fill="none" stroke="gray" stroke-linecap="round" stroke-linejoin="round" stroke-miterlimit="10" stroke-width="1"/>
        <path id="Path_2" data-name="Path 2" d="M12,26.052l10.247,5.856,10.247-5.856L22.247,39.959ZM22.247,39.959V31.907M12,22.392,22.247,18l10.247,4.392" transform="translate(-12 -6.289)" fill="none" stroke="gray" stroke-linecap="round" stroke-linejoin="round" stroke-miterlimit="10" stroke-width="1"/>
      </g>
    </g>
    <g id="Group_42" data-name="Group 42" transform="translate(497 1219)">
      <rect id="Rectangle_1" data-name="Rectangle 1" width="100" height="96" fill="none"/>
      <circle id="Ellipse_1" data-name="Ellipse 1" cx="2.5" cy="2.5" r="2.5" transform="translate(47.364 51.117)" fill="#1da1f2"/>
    </g>
    <g id="Group_43" data-name="Group 43" transform="translate(617 1241.727)">
      <rect id="Rectangle_2" data-name="Rectangle 2" width="60" height="60" fill="none"/>
      <circle id="Ellipse_2" data-name="Ellipse 2" cx="22.5" cy="22.5" r="22.5" transform="translate(8 8)" fill="#229be5"/>
    </g>
    <circle id="Ellipse_3" data-name="Ellipse 3" cx="25" cy="25" r="25" transform="translate(722 1246.778)" fill="#eb83a3"/>
    <circle id="Ellipse_4" data-name="Ellipse 4" cx="25" cy="25" r="25" transform="translate(822 1246.778)" fill="#f20c53"/>
    <g id="Group_3" data-name="Group 3" transform="translate(1240 1260.937)">
      <g id="is-eth-2" data-name="is-eth">
        <path id="Path_1-2" data-name="Path 1" d="M12,12.791,18.868,2l6.869,10.791-6.869,3.927Zm6.868,3.925V2" transform="translate(-12 -2)" fill="none" stroke="#1da1f2" stroke-linecap="round" stroke-linejoin="round" stroke-miterlimit="10" stroke-width="0.5"/>
        <path id="Path_2-2" data-name="Path 2" d="M12,23.4l6.868,3.925L25.736,23.4l-6.868,9.321Zm6.868,9.321v-5.4M12,20.944,18.868,18l6.868,2.944" transform="translate(-12 -10.151)" fill="none" stroke="#1da1f2" stroke-linecap="round" stroke-linejoin="round" stroke-miterlimit="10" stroke-width="0.5"/>
      </g>
    </g>
    <g id="Group_4" data-name="Group 4" transform="translate(1339 1259.266)">
      <g id="is-eth-3" data-name="is-eth">
        <path id="Path_1-3" data-name="Path 1" d="M12,14.073,19.684,2l7.685,12.073-7.685,4.394Zm7.684,4.391V2" transform="translate(-12 -2)" fill="none" stroke="#1da1f2" stroke-linecap="round" stroke-linejoin="round" stroke-miterlimit="10" stroke-width="0.6"/>
        <path id="Path_2-3" data-name="Path 2" d="M12,24.038l7.684,4.391,7.684-4.391L19.684,34.467Zm7.684,10.429V28.429M12,21.294,19.684,18l7.684,3.294" transform="translate(-12 -9.218)" fill="none" stroke="#1da1f2" stroke-linecap="round" stroke-linejoin="round" stroke-miterlimit="10" stroke-width="0.6"/>
      </g>
    </g>
    <g id="Group_5" data-name="Group 5" transform="translate(1438 1257.616)">
      <g id="is-eth-4" data-name="is-eth">
        <path id="Path_1-4" data-name="Path 1" d="M12,15.811,20.79,2l8.791,13.811L20.79,20.837Zm8.79,5.023V2" transform="translate(-12 -2)" fill="none" stroke="#1da1f2" stroke-linecap="round" stroke-linejoin="round" stroke-miterlimit="10" stroke-width="0.75"/>
        <path id="Path_2-4" data-name="Path 2" d="M12,24.907l8.79,5.023,8.79-5.023L20.79,36.837Zm8.79,11.929V29.929M12,21.767,20.79,18l8.79,3.767" transform="translate(-12 -7.954)" fill="none" stroke="#1da1f2" stroke-linecap="round" stroke-linejoin="round" stroke-miterlimit="10" stroke-width="0.75"/>
      </g>
    </g>
    <g id="Group_6" data-name="Group 6" transform="translate(1537 1254.839)">
      <g id="is-eth-5" data-name="is-eth">
        <path id="Path_1-5" data-name="Path 1" d="M12,18.1,22.247,2,32.495,18.1,22.247,23.959Zm10.247,5.856V2" transform="translate(-12 -2)" fill="none" stroke="#1da1f2" stroke-linecap="round" stroke-linejoin="round" stroke-miterlimit="10" stroke-width="1"/>
        <path id="Path_2-5" data-name="Path 2" d="M12,26.052l10.247,5.856,10.247-5.856L22.247,39.959ZM22.247,39.959V31.907M12,22.392,22.247,18l10.247,4.392" transform="translate(-12 -6.289)" fill="none" stroke="#1da1f2" stroke-linecap="round" stroke-linejoin="round" stroke-miterlimit="10" stroke-width="1"/>
      </g>
    </g>
    <g id="Group_7" data-name="Group 7" transform="translate(1637 1254.839)">
      <g id="is-eth-6" data-name="is-eth">
        <path id="Path_1-6" data-name="Path 1" d="M12,18.1,22.247,2,32.495,18.1,22.247,23.959Zm10.247,5.856V2" transform="translate(-12 -2)" fill="none" stroke="#1da1f2" stroke-linecap="round" stroke-linejoin="round" stroke-miterlimit="10" stroke-width="1"/>
        <path id="Path_2-6" data-name="Path 2" d="M12,26.052l10.247,5.856,10.247-5.856L22.247,39.959ZM22.247,39.959V31.907M12,22.392,22.247,18l10.247,4.392" transform="translate(-12 -6.289)" fill="none" stroke="#1da1f2" stroke-linecap="round" stroke-linejoin="round" stroke-miterlimit="10" stroke-width="1"/>
      </g>
    </g>
    <g id="Group_8" data-name="Group 8" transform="translate(1737 1254.839)">
      <g id="is-eth-7" data-name="is-eth">
        <path id="Path_1-7" data-name="Path 1" d="M12,18.1,22.247,2,32.495,18.1,22.247,23.959Zm10.247,5.856V2" transform="translate(-12 -2)" fill="none" stroke="#1da1f2" stroke-linecap="round" stroke-linejoin="round" stroke-miterlimit="10" stroke-width="1"/>
        <path id="Path_2-7" data-name="Path 2" d="M12,26.052l10.247,5.856,10.247-5.856L22.247,39.959ZM22.247,39.959V31.907M12,22.392,22.247,18l10.247,4.392" transform="translate(-12 -6.289)" fill="none" stroke="#1da1f2" stroke-linecap="round" stroke-linejoin="round" stroke-miterlimit="10" stroke-width="1"/>
      </g>
    </g>
    <g id="Group_9" data-name="Group 9" transform="translate(1837 1254.839)">
      <g id="is-eth-8" data-name="is-eth">
        <path id="Path_1-8" data-name="Path 1" d="M12,18.1,22.247,2,32.495,18.1,22.247,23.959Zm10.247,5.856V2" transform="translate(-12 -2)" fill="none" stroke="#1da1f2" stroke-linecap="round" stroke-linejoin="round" stroke-miterlimit="10" stroke-width="1"/>
        <path id="Path_2-8" data-name="Path 2" d="M12,26.052l10.247,5.856,10.247-5.856L22.247,39.959ZM22.247,39.959V31.907M12,22.392,22.247,18l10.247,4.392" transform="translate(-12 -6.289)" fill="none" stroke="#1da1f2" stroke-linecap="round" stroke-linejoin="round" stroke-miterlimit="10" stroke-width="1"/>
      </g>
    </g>
    <g id="Group_10" data-name="Group 10" transform="translate(1937 1254.839)">
      <g id="is-eth-9" data-name="is-eth">
        <path id="Path_1-9" data-name="Path 1" d="M12,18.1,22.247,2,32.495,18.1,22.247,23.959Zm10.247,5.856V2" transform="translate(-12 -2)" fill="none" stroke="#1da1f2" stroke-linecap="round" stroke-linejoin="round" stroke-miterlimit="10" stroke-width="1"/>
        <path id="Path_2-9" data-name="Path 2" d="M12,26.052l10.247,5.856,10.247-5.856L22.247,39.959ZM22.247,39.959V31.907M12,22.392,22.247,18l10.247,4.392" transform="translate(-12 -6.289)" fill="none" stroke="#1da1f2" stroke-linecap="round" stroke-linejoin="round" stroke-miterlimit="10" stroke-width="1"/>
      </g>
    </g>
    <g id="Group_11" data-name="Group 11" transform="translate(2037 1254.839)">
      <g id="is-eth-10" data-name="is-eth">
        <path id="Path_1-10" data-name="Path 1" d="M12,18.1,22.247,2,32.495,18.1,22.247,23.959Zm10.247,5.856V2" transform="translate(-12 -2)" fill="none" stroke="#1da1f2" stroke-linecap="round" stroke-linejoin="round" stroke-miterlimit="10" stroke-width="1"/>
        <path id="Path_2-10" data-name="Path 2" d="M12,26.052l10.247,5.856,10.247-5.856L22.247,39.959ZM22.247,39.959V31.907M12,22.392,22.247,18l10.247,4.392" transform="translate(-12 -6.289)" fill="none" stroke="#1da1f2" stroke-linecap="round" stroke-linejoin="round" stroke-miterlimit="10" stroke-width="1"/>
      </g>
    </g>
    <g id="Group_12" data-name="Group 12" transform="translate(2137 1254.839)">
      <g id="is-eth-11" data-name="is-eth">
        <path id="Path_1-11" data-name="Path 1" d="M12,18.1,22.247,2,32.495,18.1,22.247,23.959Zm10.247,5.856V2" transform="translate(-12 -2)" fill="none" stroke="#1da1f2" stroke-linecap="round" stroke-linejoin="round" stroke-miterlimit="10" stroke-width="1"/>
        <path id="Path_2-11" data-name="Path 2" d="M12,26.052l10.247,5.856,10.247-5.856L22.247,39.959ZM22.247,39.959V31.907M12,22.392,22.247,18l10.247,4.392" transform="translate(-12 -6.289)" fill="none" stroke="#1da1f2" stroke-linecap="round" stroke-linejoin="round" stroke-miterlimit="10" stroke-width="1"/>
      </g>
    </g>
    <g id="Group_13" data-name="Group 13" transform="translate(2237 1254.839)">
      <g id="is-eth-12" data-name="is-eth">
        <path id="Path_1-12" data-name="Path 1" d="M12,18.1,22.247,2,32.495,18.1,22.247,23.959Zm10.247,5.856V2" transform="translate(-12 -2)" fill="none" stroke="#1da1f2" stroke-linecap="round" stroke-linejoin="round" stroke-miterlimit="10" stroke-width="1"/>
        <path id="Path_2-12" data-name="Path 2" d="M12,26.052l10.247,5.856,10.247-5.856L22.247,39.959ZM22.247,39.959V31.907M12,22.392,22.247,18l10.247,4.392" transform="translate(-12 -6.289)" fill="none" stroke="#1da1f2" stroke-linecap="round" stroke-linejoin="round" stroke-miterlimit="10" stroke-width="1"/>
      </g>
    </g>
    <g id="Group_14" data-name="Group 14" transform="translate(2337 1254.839)">
      <g id="is-eth-13" data-name="is-eth">
        <path id="Path_1-13" data-name="Path 1" d="M12,18.1,22.247,2,32.495,18.1,22.247,23.959Zm10.247,5.856V2" transform="translate(-12 -2)" fill="none" stroke="#1da1f2" stroke-linecap="round" stroke-linejoin="round" stroke-miterlimit="10" stroke-width="1"/>
        <path id="Path_2-13" data-name="Path 2" d="M12,26.052l10.247,5.856,10.247-5.856L22.247,39.959ZM22.247,39.959V31.907M12,22.392,22.247,18l10.247,4.392" transform="translate(-12 -6.289)" fill="none" stroke="#1da1f2" stroke-linecap="round" stroke-linejoin="round" stroke-miterlimit="10" stroke-width="1"/>
      </g>
    </g>
    <g id="Group_15" data-name="Group 15" transform="translate(2437 1254.839)">
      <g id="is-eth-14" data-name="is-eth">
        <path id="Path_1-14" data-name="Path 1" d="M12,18.1,22.247,2,32.495,18.1,22.247,23.959Zm10.247,5.856V2" transform="translate(-12 -2)" fill="none" stroke="#1da1f2" stroke-linecap="round" stroke-linejoin="round" stroke-miterlimit="10" stroke-width="1"/>
        <path id="Path_2-14" data-name="Path 2" d="M12,26.052l10.247,5.856,10.247-5.856L22.247,39.959ZM22.247,39.959V31.907M12,22.392,22.247,18l10.247,4.392" transform="translate(-12 -6.289)" fill="none" stroke="#1da1f2" stroke-linecap="round" stroke-linejoin="round" stroke-miterlimit="10" stroke-width="1"/>
      </g>
    </g>
    <g id="Group_16" data-name="Group 16" transform="translate(2537 1254.839)">
      <g id="is-eth-15" data-name="is-eth">
        <path id="Path_1-15" data-name="Path 1" d="M12,18.1,22.247,2,32.495,18.1,22.247,23.959Zm10.247,5.856V2" transform="translate(-12 -2)" fill="none" stroke="#1da1f2" stroke-linecap="round" stroke-linejoin="round" stroke-miterlimit="10" stroke-width="1"/>
        <path id="Path_2-15" data-name="Path 2" d="M12,26.052l10.247,5.856,10.247-5.856L22.247,39.959ZM22.247,39.959V31.907M12,22.392,22.247,18l10.247,4.392" transform="translate(-12 -6.289)" fill="none" stroke="#1da1f2" stroke-linecap="round" stroke-linejoin="round" stroke-miterlimit="10" stroke-width="1"/>
      </g>
    </g>
    <g id="Group_17" data-name="Group 17" transform="translate(2637 1254.839)">
      <g id="is-eth-16" data-name="is-eth">
        <path id="Path_1-16" data-name="Path 1" d="M12,18.1,22.247,2,32.495,18.1,22.247,23.959Zm10.247,5.856V2" transform="translate(-12 -2)" fill="none" stroke="#1da1f2" stroke-linecap="round" stroke-linejoin="round" stroke-miterlimit="10" stroke-width="1"/>
        <path id="Path_2-16" data-name="Path 2" d="M12,26.052l10.247,5.856,10.247-5.856L22.247,39.959ZM22.247,39.959V31.907M12,22.392,22.247,18l10.247,4.392" transform="translate(-12 -6.289)" fill="none" stroke="#1da1f2" stroke-linecap="round" stroke-linejoin="round" stroke-miterlimit="10" stroke-width="1"/>
      </g>
    </g>
    <g id="Group_18" data-name="Group 18" transform="translate(2737 1254.839)">
      <g id="is-eth-17" data-name="is-eth">
        <path id="Path_1-17" data-name="Path 1" d="M12,18.1,22.247,2,32.495,18.1,22.247,23.959Zm10.247,5.856V2" transform="translate(-12 -2)" fill="none" stroke="#1da1f2" stroke-linecap="round" stroke-linejoin="round" stroke-miterlimit="10" stroke-width="1"/>
        <path id="Path_2-17" data-name="Path 2" d="M12,26.052l10.247,5.856,10.247-5.856L22.247,39.959ZM22.247,39.959V31.907M12,22.392,22.247,18l10.247,4.392" transform="translate(-12 -6.289)" fill="none" stroke="#1da1f2" stroke-linecap="round" stroke-linejoin="round" stroke-miterlimit="10" stroke-width="1"/>
      </g>
    </g>
    <g id="Group_19" data-name="Group 19" transform="translate(2837 1254.839)">
      <g id="is-eth-18" data-name="is-eth">
        <path id="Path_1-18" data-name="Path 1" d="M12,18.1,22.247,2,32.495,18.1,22.247,23.959Zm10.247,5.856V2" transform="translate(-12 -2)" fill="none" stroke="#1da1f2" stroke-linecap="round" stroke-linejoin="round" stroke-miterlimit="10" stroke-width="1"/>
        <path id="Path_2-18" data-name="Path 2" d="M12,26.052l10.247,5.856,10.247-5.856L22.247,39.959ZM22.247,39.959V31.907M12,22.392,22.247,18l10.247,4.392" transform="translate(-12 -6.289)" fill="none" stroke="#1da1f2" stroke-linecap="round" stroke-linejoin="round" stroke-miterlimit="10" stroke-width="1"/>
      </g>
    </g>
    <g id="Group_20" data-name="Group 20" transform="translate(2937 1254.839)">
      <g id="is-eth-19" data-name="is-eth">
        <path id="Path_1-19" data-name="Path 1" d="M12,18.1,22.247,2,32.495,18.1,22.247,23.959Zm10.247,5.856V2" transform="translate(-12 -2)" fill="none" stroke="#1da1f2" stroke-linecap="round" stroke-linejoin="round" stroke-miterlimit="10" stroke-width="1"/>
        <path id="Path_2-19" data-name="Path 2" d="M12,26.052l10.247,5.856,10.247-5.856L22.247,39.959ZM22.247,39.959V31.907M12,22.392,22.247,18l10.247,4.392" transform="translate(-12 -6.289)" fill="none" stroke="#1da1f2" stroke-linecap="round" stroke-linejoin="round" stroke-miterlimit="10" stroke-width="1"/>
      </g>
    </g>
    <g id="Group_21" data-name="Group 21" transform="translate(3037 1254.839)">
      <g id="is-eth-20" data-name="is-eth">
        <path id="Path_1-20" data-name="Path 1" d="M12,18.1,22.247,2,32.495,18.1,22.247,23.959Zm10.247,5.856V2" transform="translate(-12 -2)" fill="none" stroke="#1da1f2" stroke-linecap="round" stroke-linejoin="round" stroke-miterlimit="10" stroke-width="1"/>
        <path id="Path_2-20" data-name="Path 2" d="M12,26.052l10.247,5.856,10.247-5.856L22.247,39.959ZM22.247,39.959V31.907M12,22.392,22.247,18l10.247,4.392" transform="translate(-12 -6.289)" fill="none" stroke="#1da1f2" stroke-linecap="round" stroke-linejoin="round" stroke-miterlimit="10" stroke-width="1"/>
      </g>
    </g>
    <g id="Group_22" data-name="Group 22" transform="translate(3137 1254.839)">
      <g id="is-eth-21" data-name="is-eth">
        <path id="Path_1-21" data-name="Path 1" d="M12,18.1,22.247,2,32.495,18.1,22.247,23.959Zm10.247,5.856V2" transform="translate(-12 -2)" fill="none" stroke="#1da1f2" stroke-linecap="round" stroke-linejoin="round" stroke-miterlimit="10" stroke-width="1"/>
        <path id="Path_2-21" data-name="Path 2" d="M12,26.052l10.247,5.856,10.247-5.856L22.247,39.959ZM22.247,39.959V31.907M12,22.392,22.247,18l10.247,4.392" transform="translate(-12 -6.289)" fill="none" stroke="#1da1f2" stroke-linecap="round" stroke-linejoin="round" stroke-miterlimit="10" stroke-width="1"/>
      </g>
    </g>
    <g id="Group_23" data-name="Group 23" transform="translate(3237 1254.839)">
      <g id="is-eth-22" data-name="is-eth">
        <path id="Path_1-22" data-name="Path 1" d="M12,18.1,22.247,2,32.495,18.1,22.247,23.959Zm10.247,5.856V2" transform="translate(-12 -2)" fill="none" stroke="#1da1f2" stroke-linecap="round" stroke-linejoin="round" stroke-miterlimit="10" stroke-width="1"/>
        <path id="Path_2-22" data-name="Path 2" d="M12,26.052l10.247,5.856,10.247-5.856L22.247,39.959ZM22.247,39.959V31.907M12,22.392,22.247,18l10.247,4.392" transform="translate(-12 -6.289)" fill="none" stroke="#1da1f2" stroke-linecap="round" stroke-linejoin="round" stroke-miterlimit="10" stroke-width="1"/>
      </g>
    </g>
    <path id="Exclusion_1" data-name="Exclusion 1" d="M25,50A25.007,25.007,0,0,1,15.269,1.965,25.007,25.007,0,0,1,34.731,48.036,24.843,24.843,0,0,1,25,50Zm.5-42a17.5,17.5,0,1,0,12.375,5.125A17.385,17.385,0,0,0,25.5,8Z" transform="translate(922 1247.704)" fill="#f20c53"/>
    <g id="Group_47" data-name="Group 47" transform="translate(1022 1245.769)">
      <g id="Group_1" data-name="Group 1" transform="translate(0 2)">
        <g id="is-eth-23" data-name="is-eth" transform="translate(21 18.772)">
          <path id="Path_1-23" data-name="Path 1" d="M12,7.689,15.621,2l3.621,5.689L15.621,9.76Zm3.621,2.069V2" transform="translate(-12 -2)" fill="none" stroke="#1da1f2" stroke-linecap="round" stroke-linejoin="round" stroke-miterlimit="10" stroke-width="0.5"/>
          <path id="Path_2-23" data-name="Path 2" d="M12,20.845l3.621,2.069,3.621-2.069L15.621,25.76Zm3.621,4.914V22.914M12,19.552,15.621,18l3.621,1.552" transform="translate(-12 -13.862)" fill="none" stroke="#1da1f2" stroke-linecap="round" stroke-linejoin="round" stroke-miterlimit="10" stroke-width="0.5"/>
        </g>
        <g id="Ellipse_7" data-name="Ellipse 7" fill="none" stroke="#f20c53" stroke-width="2">
          <circle cx="25" cy="25" r="25" stroke="none"/>
          <circle cx="25" cy="25" r="24" fill="none"/>
        </g>
      </g>
      <g id="Group_24" data-name="Group 24">
        <circle id="Ellipse_8" data-name="Ellipse 8" cx="2" cy="2" r="2" transform="translate(3 10)" fill="#8ce8c3"/>
        <circle id="Ellipse_9" data-name="Ellipse 9" cx="2" cy="2" r="2" transform="translate(6 8)" fill="#8ce8c3"/>
        <circle id="Ellipse_10" data-name="Ellipse 10" cx="2" cy="2" r="2" transform="translate(22)" fill="#91d2fa"/>
        <circle id="Ellipse_11" data-name="Ellipse 11" cx="2" cy="2" r="2" transform="translate(25 3)" fill="#91d2fa"/>
        <circle id="Ellipse_12" data-name="Ellipse 12" cx="2" cy="2" r="2" transform="translate(46 13)" fill="#cc8ef5"/>
        <circle id="Ellipse_13" data-name="Ellipse 13" cx="2" cy="2" r="2" transform="translate(46 17)" fill="#cc8ef5"/>
        <circle id="Ellipse_14" data-name="Ellipse 14" cx="2" cy="2" r="2" transform="translate(46 33)" fill="#8ce8c3"/>
        <circle id="Ellipse_15" data-name="Ellipse 15" cx="2" cy="2" r="2" transform="translate(43 36)" fill="#8ce8c3"/>
        <circle id="Ellipse_16" data-name="Ellipse 16" cx="2" cy="2" r="2" transform="translate(28 45)" fill="#f48ea7"/>
        <circle id="Ellipse_17" data-name="Ellipse 17" cx="2" cy="2" r="2" transform="translate(33 48)" fill="#f48ea7"/>
        <circle id="Ellipse_18" data-name="Ellipse 18" cx="2" cy="2" r="2" transform="translate(13 48)" fill="#91d2fa"/>
        <circle id="Ellipse_20" data-name="Ellipse 20" cx="2" cy="2" r="2" transform="translate(0 34)" fill="#cd8ff5"/>
        <circle id="Ellipse_21" data-name="Ellipse 21" cx="2" cy="2" r="2" transform="translate(0 29)" fill="#91d2fa"/>
        <circle id="Ellipse_19" data-name="Ellipse 19" cx="2" cy="2" r="2" transform="translate(10 45)" fill="#91d2fa"/>
      </g>
    </g>
    <g id="Group_46" data-name="Group 46" transform="translate(1097 1223)">
      <rect id="Rectangle_7" data-name="Rectangle 7" width="100" height="96" fill="none"/>
      <g id="Group_45" data-name="Group 45" transform="translate(22 20)">
        <g id="Group_25" data-name="Group 25">
          <circle id="Ellipse_8-2" data-name="Ellipse 8" cx="1.75" cy="1.75" r="1.75" transform="translate(6 10)" fill="#8ce8c3"/>
          <circle id="Ellipse_9-2" data-name="Ellipse 9" cx="2" cy="2" r="2" transform="translate(9 7)" fill="#8ce8c3"/>
          <circle id="Ellipse_10-2" data-name="Ellipse 10" cx="1.75" cy="1.75" r="1.75" transform="translate(26)" fill="#91d2fa"/>
          <circle id="Ellipse_11-2" data-name="Ellipse 11" cx="2" cy="2" r="2" transform="translate(30 1)" fill="#91d2fa"/>
          <circle id="Ellipse_12-2" data-name="Ellipse 12" cx="1.75" cy="1.75" r="1.75" transform="translate(51 15)" fill="#cc8ef5"/>
          <circle id="Ellipse_13-2" data-name="Ellipse 13" cx="2" cy="2" r="2" transform="translate(53 19)" fill="#cc8ef5"/>
          <circle id="Ellipse_14-2" data-name="Ellipse 14" cx="2" cy="2" r="2" transform="translate(53 35)" fill="#8ce8c3"/>
          <circle id="Ellipse_15-2" data-name="Ellipse 15" cx="2" cy="2" r="2" transform="translate(52 40)" fill="#8ce8c3"/>
          <circle id="Ellipse_16-2" data-name="Ellipse 16" cx="2" cy="2" r="2" transform="translate(32 50)" fill="#f48ea7"/>
          <circle id="Ellipse_17-2" data-name="Ellipse 17" cx="2" cy="2" r="2" transform="translate(37 52)" fill="#f48ea7"/>
          <circle id="Ellipse_18-2" data-name="Ellipse 18" cx="2" cy="2" r="2" transform="translate(14 52)" fill="#91d2fa"/>
          <circle id="Ellipse_20-2" data-name="Ellipse 20" cx="1.75" cy="1.75" r="1.75" transform="translate(1 35)" fill="#cd8ff5"/>
          <circle id="Ellipse_21-2" data-name="Ellipse 21" cx="2" cy="2" r="2" transform="translate(0 31)" fill="#91d2fa"/>
          <circle id="Ellipse_19-2" data-name="Ellipse 19" cx="2" cy="2" r="2" transform="translate(11 49)" fill="#91d2fa"/>
        </g>
        <g id="Group_2" data-name="Group 2" transform="translate(4 4)">
          <g id="is-eth-24" data-name="is-eth" transform="translate(20 16.649)">
            <path id="Path_1-24" data-name="Path 1" d="M12,10.139,17.18,2l5.18,8.139L17.18,13.1Zm5.18,2.96V2" transform="translate(-12 -2)" fill="none" stroke="#1da1f2" stroke-linecap="round" stroke-linejoin="round" stroke-miterlimit="10" stroke-width="0.5"/>
            <path id="Path_2-24" data-name="Path 2" d="M12,22.07l5.18,2.96,5.18-2.96L17.18,29.1Zm5.18,7.03V25.03M12,20.22,17.18,18l5.18,2.22" transform="translate(-12 -12.08)" fill="none" stroke="#1da1f2" stroke-linecap="round" stroke-linejoin="round" stroke-miterlimit="10" stroke-width="0.5"/>
          </g>
          <g id="Ellipse_7-2" data-name="Ellipse 7" fill="none" stroke="#f20c53" stroke-width="0.5">
            <circle cx="25" cy="25" r="25" stroke="none"/>
            <circle cx="25" cy="25" r="24.75" fill="none"/>
          </g>
        </g>
      </g>
    </g>
    <g id="Group_26" data-name="Group 26" transform="translate(1215 1241.778)">
      <circle id="Ellipse_8-3" data-name="Ellipse 8" cx="1.75" cy="1.75" r="1.75" transform="translate(8 11)" fill="#b1c2c5"/>
      <circle id="Ellipse_9-3" data-name="Ellipse 9" cx="2" cy="2" r="2" transform="translate(10 6)" fill="#9cd8c3"/>
      <circle id="Ellipse_10-3" data-name="Ellipse 10" cx="1.75" cy="1.75" r="1.75" transform="translate(29 1)" fill="#b1b7fa"/>
      <circle id="Ellipse_11-3" data-name="Ellipse 11" cx="2" cy="2" r="2" transform="translate(34)" fill="#9fc7fa"/>
      <circle id="Ellipse_12-3" data-name="Ellipse 12" cx="1.75" cy="1.75" r="1.75" transform="translate(54 16)" fill="#e0a19f"/>
      <circle id="Ellipse_13-3" data-name="Ellipse 13" cx="2" cy="2" r="2" transform="translate(57 19)" fill="#d395d3"/>
      <circle id="Ellipse_14-3" data-name="Ellipse 14" cx="1.75" cy="1.75" r="1.75" transform="translate(57 36)" fill="#b0d5a5"/>
      <circle id="Ellipse_15-3" data-name="Ellipse 15" cx="2" cy="2" r="2" transform="translate(58 41)" fill="#9bdfba"/>
      <circle id="Ellipse_16-3" data-name="Ellipse 16" cx="2" cy="2" r="2" transform="translate(35 55)" fill="#d38fb5"/>
      <circle id="Ellipse_17-3" data-name="Ellipse 17" cx="2" cy="2" r="2" transform="translate(40 54)" fill="#9d97c6"/>
      <circle id="Ellipse_18-3" data-name="Ellipse 18" cx="1.75" cy="1.75" r="1.75" transform="translate(17 53)" fill="#9fe2cf"/>
      <circle id="Ellipse_20-3" data-name="Ellipse 20" cx="2" cy="2" r="2" transform="translate(3 37)" fill="#8a97f3"/>
      <circle id="Ellipse_21-3" data-name="Ellipse 21" cx="2" cy="2" r="2" transform="translate(0 32)" fill="#96d8e9"/>
      <circle id="Ellipse_19-3" data-name="Ellipse 19" cx="2" cy="2" r="2" transform="translate(12 53)" fill="#96d8e9"/>
    </g>
    <g id="Group_27" data-name="Group 27" transform="translate(1314 1240.767)">
      <circle id="Ellipse_8-4" data-name="Ellipse 8" cx="1.75" cy="1.75" r="1.75" transform="translate(9 12)" fill="#b1c2c5"/>
      <circle id="Ellipse_9-4" data-name="Ellipse 9" cx="2" cy="2" r="2" transform="translate(10 5)" fill="#9cd8c3"/>
      <circle id="Ellipse_10-4" data-name="Ellipse 10" cx="1.75" cy="1.75" r="1.75" transform="translate(30 2)" fill="#b1b7fa"/>
      <circle id="Ellipse_11-4" data-name="Ellipse 11" cx="2" cy="2" r="2" transform="translate(36)" fill="#9fc7fa"/>
      <circle id="Ellipse_12-4" data-name="Ellipse 12" cx="1.75" cy="1.75" r="1.75" transform="translate(55 17)" fill="#eaac6a"/>
      <circle id="Ellipse_13-4" data-name="Ellipse 13" cx="2" cy="2" r="2" transform="translate(60 20)" fill="#e0a19f"/>
      <circle id="Ellipse_14-4" data-name="Ellipse 14" cx="1.75" cy="1.75" r="1.75" transform="translate(58 37)" fill="#b0d5a5"/>
      <circle id="Ellipse_15-4" data-name="Ellipse 15" cx="2" cy="2" r="2" transform="translate(60 43)" fill="#9bdfba"/>
      <circle id="Ellipse_16-4" data-name="Ellipse 16" cx="2" cy="2" r="2" transform="translate(36 57)" fill="#689dd9"/>
      <circle id="Ellipse_17-4" data-name="Ellipse 17" cx="2" cy="2" r="2" transform="translate(41 55)" fill="#689dd9"/>
      <circle id="Ellipse_18-4" data-name="Ellipse 18" cx="1.75" cy="1.75" r="1.75" transform="translate(17 53)" fill="#9fe2cf"/>
      <circle id="Ellipse_20-4" data-name="Ellipse 20" cx="2" cy="2" r="2" transform="translate(4 38)" fill="#8a97f3"/>
      <circle id="Ellipse_21-4" data-name="Ellipse 21" cx="2" cy="2" r="2" transform="translate(0 32)" fill="#96d8e9"/>
      <circle id="Ellipse_19-4" data-name="Ellipse 19" cx="2" cy="2" r="2" transform="translate(11 54)" fill="#96d8e9"/>
    </g>
    <g id="Group_28" data-name="Group 28" transform="translate(1413 1240.714)">
      <circle id="Ellipse_8-5" data-name="Ellipse 8" cx="1.5" cy="1.5" r="1.5" transform="translate(10 12)" fill="#b1c2c5"/>
      <circle id="Ellipse_9-5" data-name="Ellipse 9" cx="2" cy="2" r="2" transform="translate(10 4)" fill="#9cd8c3"/>
      <circle id="Ellipse_10-5" data-name="Ellipse 10" cx="1.5" cy="1.5" r="1.5" transform="translate(31 2)" fill="#b1b7fa"/>
      <circle id="Ellipse_11-5" data-name="Ellipse 11" cx="2" cy="2" r="2" transform="translate(38)" fill="#9fc7fa"/>
      <circle id="Ellipse_12-5" data-name="Ellipse 12" cx="1.5" cy="1.5" r="1.5" transform="translate(56 17)" fill="#f4bb32"/>
      <circle id="Ellipse_13-5" data-name="Ellipse 13" cx="2" cy="2" r="2" transform="translate(63 19)" fill="#eaac6a"/>
      <circle id="Ellipse_14-5" data-name="Ellipse 14" cx="1.5" cy="1.5" r="1.5" transform="translate(59 37)" fill="#b0d5a5"/>
      <circle id="Ellipse_15-5" data-name="Ellipse 15" cx="2" cy="2" r="2" transform="translate(62 44)" fill="#c8c69f"/>
      <circle id="Ellipse_16-5" data-name="Ellipse 16" cx="2" cy="2" r="2" transform="translate(36 58)" fill="#349fef"/>
      <circle id="Ellipse_17-5" data-name="Ellipse 17" cx="1.5" cy="1.5" r="1.5" transform="translate(42 55)" fill="#349fef"/>
      <circle id="Ellipse_18-5" data-name="Ellipse 18" cx="1.5" cy="1.5" r="1.5" transform="translate(18 53)" fill="#b0f69a"/>
      <circle id="Ellipse_20-5" data-name="Ellipse 20" cx="1.5" cy="1.5" r="1.5" transform="translate(5 38)" fill="#8a97f3"/>
      <circle id="Ellipse_21-5" data-name="Ellipse 21" cx="2" cy="2" r="2" transform="translate(0 32)" fill="#a6edb6"/>
      <circle id="Ellipse_19-5" data-name="Ellipse 19" cx="2" cy="2" r="2" transform="translate(11 54)" fill="#a6edb6"/>
    </g>
    <g id="Group_29" data-name="Group 29" transform="translate(1513 1240.714)">
      <circle id="Ellipse_8-6" data-name="Ellipse 8" cx="1.25" cy="1.25" r="1.25" transform="translate(10 12)" fill="#b1c2c5"/>
      <circle id="Ellipse_9-6" data-name="Ellipse 9" cx="2" cy="2" r="2" transform="translate(10 4)" fill="#9cd8c3"/>
      <circle id="Ellipse_10-6" data-name="Ellipse 10" cx="1.25" cy="1.25" r="1.25" transform="translate(31 2)" fill="#b1b7fa"/>
      <circle id="Ellipse_11-6" data-name="Ellipse 11" cx="2" cy="2" r="2" transform="translate(38)" fill="#9fc7fa"/>
      <circle id="Ellipse_12-6" data-name="Ellipse 12" cx="1.25" cy="1.25" r="1.25" transform="translate(56 17)" fill="#f4bb32"/>
      <circle id="Ellipse_13-6" data-name="Ellipse 13" cx="2" cy="2" r="2" transform="translate(63 19)" fill="#eaac6a"/>
      <circle id="Ellipse_14-6" data-name="Ellipse 14" cx="1.25" cy="1.25" r="1.25" transform="translate(59 37)" fill="#b0d5a5"/>
      <circle id="Ellipse_15-6" data-name="Ellipse 15" cx="2" cy="2" r="2" transform="translate(62 44)" fill="#c8c69f"/>
      <circle id="Ellipse_16-6" data-name="Ellipse 16" cx="2" cy="2" r="2" transform="translate(36 58)" fill="#349fef"/>
      <circle id="Ellipse_17-6" data-name="Ellipse 17" cx="1.25" cy="1.25" r="1.25" transform="translate(42 55)" fill="#349fef"/>
      <circle id="Ellipse_18-6" data-name="Ellipse 18" cx="1.25" cy="1.25" r="1.25" transform="translate(18 53)" fill="#b0f69a"/>
      <circle id="Ellipse_20-6" data-name="Ellipse 20" cx="1.25" cy="1.25" r="1.25" transform="translate(5 38)" fill="#8a97f3"/>
      <circle id="Ellipse_21-6" data-name="Ellipse 21" cx="2" cy="2" r="2" transform="translate(0 32)" fill="#a6edb6"/>
      <circle id="Ellipse_19-6" data-name="Ellipse 19" cx="2" cy="2" r="2" transform="translate(11 54)" fill="#a6edb6"/>
    </g>
    <g id="Group_30" data-name="Group 30" transform="translate(1613 1240.741)">
      <circle id="Ellipse_8-7" data-name="Ellipse 8" cx="1" cy="1" r="1" transform="translate(10 12)" fill="#b1c2c5"/>
      <circle id="Ellipse_9-7" data-name="Ellipse 9" cx="1.75" cy="1.75" r="1.75" transform="translate(10 4)" fill="#9cd8c3"/>
      <circle id="Ellipse_10-7" data-name="Ellipse 10" cx="1" cy="1" r="1" transform="translate(31 2)" fill="#b1b7fa"/>
      <circle id="Ellipse_11-7" data-name="Ellipse 11" cx="1.75" cy="1.75" r="1.75" transform="translate(38)" fill="#9fc7fa"/>
      <circle id="Ellipse_12-7" data-name="Ellipse 12" cx="1" cy="1" r="1" transform="translate(56 17)" fill="#f4bb32"/>
      <circle id="Ellipse_13-7" data-name="Ellipse 13" cx="1.75" cy="1.75" r="1.75" transform="translate(63 19)" fill="#eaac6a"/>
      <circle id="Ellipse_14-7" data-name="Ellipse 14" cx="1" cy="1" r="1" transform="translate(59 37)" fill="#b0d5a5"/>
      <circle id="Ellipse_15-7" data-name="Ellipse 15" cx="1.75" cy="1.75" r="1.75" transform="translate(62 44)" fill="#c8c69f"/>
      <circle id="Ellipse_16-7" data-name="Ellipse 16" cx="1.75" cy="1.75" r="1.75" transform="translate(36 58)" fill="#349fef"/>
      <circle id="Ellipse_17-7" data-name="Ellipse 17" cx="1" cy="1" r="1" transform="translate(42 55)" fill="#349fef"/>
      <circle id="Ellipse_18-7" data-name="Ellipse 18" cx="1" cy="1" r="1" transform="translate(18 53)" fill="#b0f69a"/>
      <circle id="Ellipse_20-7" data-name="Ellipse 20" cx="1" cy="1" r="1" transform="translate(5 38)" fill="#8a97f3"/>
      <circle id="Ellipse_21-7" data-name="Ellipse 21" cx="1.75" cy="1.75" r="1.75" transform="translate(0 32)" fill="#a6edb6"/>
      <circle id="Ellipse_19-7" data-name="Ellipse 19" cx="1.75" cy="1.75" r="1.75" transform="translate(11 54)" fill="#a6edb6"/>
    </g>
    <g id="Group_31" data-name="Group 31" transform="translate(1713 1240.741)">
      <circle id="Ellipse_8-8" data-name="Ellipse 8" cx="0.75" cy="0.75" r="0.75" transform="translate(10 12)" fill="#b342de"/>
      <circle id="Ellipse_9-8" data-name="Ellipse 9" cx="1.75" cy="1.75" r="1.75" transform="translate(9 3)" fill="#c55fd3"/>
      <circle id="Ellipse_10-8" data-name="Ellipse 10" cx="0.75" cy="0.75" r="0.75" transform="translate(31 2)" fill="#b1b7fa"/>
      <circle id="Ellipse_11-8" data-name="Ellipse 11" cx="1.75" cy="1.75" r="1.75" transform="translate(38)" fill="#9fc7fa"/>
      <circle id="Ellipse_12-8" data-name="Ellipse 12" cx="0.75" cy="0.75" r="0.75" transform="translate(56 17)" fill="#f4bb32"/>
      <circle id="Ellipse_13-8" data-name="Ellipse 13" cx="1.75" cy="1.75" r="1.75" transform="translate(63 19)" fill="#eaac6a"/>
      <circle id="Ellipse_14-8" data-name="Ellipse 14" cx="0.75" cy="0.75" r="0.75" transform="translate(59 37)" fill="#b0d5a5"/>
      <circle id="Ellipse_15-8" data-name="Ellipse 15" cx="1.75" cy="1.75" r="1.75" transform="translate(62 44)" fill="#c8c69f"/>
      <circle id="Ellipse_16-8" data-name="Ellipse 16" cx="1.75" cy="1.75" r="1.75" transform="translate(36 58)" fill="#349fef"/>
      <circle id="Ellipse_17-8" data-name="Ellipse 17" cx="0.75" cy="0.75" r="0.75" transform="translate(42 55)" fill="#349fef"/>
      <circle id="Ellipse_18-8" data-name="Ellipse 18" cx="0.75" cy="0.75" r="0.75" transform="translate(18 53)" fill="#a169cd"/>
      <circle id="Ellipse_20-8" data-name="Ellipse 20" cx="0.75" cy="0.75" r="0.75" transform="translate(5 38)" fill="#8a97f3"/>
      <circle id="Ellipse_21-8" data-name="Ellipse 21" cx="1.75" cy="1.75" r="1.75" transform="translate(0 32)" fill="#a79fb6"/>
      <circle id="Ellipse_19-8" data-name="Ellipse 19" cx="1.75" cy="1.75" r="1.75" transform="translate(11 54)" fill="#a79fb6"/>
    </g>
    <g id="Group_32" data-name="Group 32" transform="translate(1813 1240.741)">
      <circle id="Ellipse_8-9" data-name="Ellipse 8" cx="0.5" cy="0.5" r="0.5" transform="translate(10 12)" fill="#b342de"/>
      <circle id="Ellipse_9-9" data-name="Ellipse 9" cx="1.75" cy="1.75" r="1.75" transform="translate(9 3)" fill="#c55fd3"/>
      <circle id="Ellipse_10-9" data-name="Ellipse 10" cx="0.5" cy="0.5" r="0.5" transform="translate(31 2)" fill="#b1b7fa"/>
      <circle id="Ellipse_11-9" data-name="Ellipse 11" cx="1.75" cy="1.75" r="1.75" transform="translate(38)" fill="#add6ca"/>
      <circle id="Ellipse_12-9" data-name="Ellipse 12" cx="0.5" cy="0.5" r="0.5" transform="translate(56 17)" fill="#f4bb32"/>
      <circle id="Ellipse_13-9" data-name="Ellipse 13" cx="1.75" cy="1.75" r="1.75" transform="translate(63 19)" fill="#eaac6a"/>
      <circle id="Ellipse_14-9" data-name="Ellipse 14" cx="0.5" cy="0.5" r="0.5" transform="translate(59 37)" fill="#2dcb8e"/>
      <circle id="Ellipse_15-9" data-name="Ellipse 15" cx="1.75" cy="1.75" r="1.75" transform="translate(62 44)" fill="#5bc493"/>
      <circle id="Ellipse_16-9" data-name="Ellipse 16" cx="1.75" cy="1.75" r="1.75" transform="translate(36 58)" fill="#8a97f3"/>
      <circle id="Ellipse_17-9" data-name="Ellipse 17" cx="0.5" cy="0.5" r="0.5" transform="translate(42 55)" fill="#d8b6f8"/>
      <circle id="Ellipse_18-9" data-name="Ellipse 18" cx="0.5" cy="0.5" r="0.5" transform="translate(18 53)" fill="#9e31e2"/>
      <circle id="Ellipse_20-9" data-name="Ellipse 20" cx="0.5" cy="0.5" r="0.5" transform="translate(5 38)" fill="#c6edb7"/>
      <circle id="Ellipse_21-9" data-name="Ellipse 21" cx="1.75" cy="1.75" r="1.75" transform="translate(0 32)" fill="#a169cd"/>
      <circle id="Ellipse_19-9" data-name="Ellipse 19" cx="1.75" cy="1.75" r="1.75" transform="translate(11 54)" fill="#a169cd"/>
    </g>
    <g id="Group_33" data-name="Group 33" transform="translate(1913 1240.767)">
      <circle id="Ellipse_8-10" data-name="Ellipse 8" cx="0.375" cy="0.375" r="0.375" transform="translate(10 12)" fill="#c27aea"/>
      <circle id="Ellipse_9-10" data-name="Ellipse 9" cx="1.5" cy="1.5" r="1.5" transform="translate(9 3)" fill="#9e31e2"/>
      <circle id="Ellipse_10-10" data-name="Ellipse 10" cx="0.375" cy="0.375" r="0.375" transform="translate(31 2)" fill="#b1b7fa"/>
      <circle id="Ellipse_11-10" data-name="Ellipse 11" cx="1.5" cy="1.5" r="1.5" transform="translate(38)" fill="#add6ca"/>
      <circle id="Ellipse_12-10" data-name="Ellipse 12" cx="0.375" cy="0.375" r="0.375" transform="translate(56 17)" fill="#f4bb32"/>
      <circle id="Ellipse_13-10" data-name="Ellipse 13" cx="1.5" cy="1.5" r="1.5" transform="translate(63 19)" fill="#eaac6a"/>
      <circle id="Ellipse_14-10" data-name="Ellipse 14" cx="0.375" cy="0.375" r="0.375" transform="translate(59 37)" fill="#2dcb8e"/>
      <circle id="Ellipse_15-10" data-name="Ellipse 15" cx="1.5" cy="1.5" r="1.5" transform="translate(62 44)" fill="#5bc493"/>
      <circle id="Ellipse_16-10" data-name="Ellipse 16" cx="1.5" cy="1.5" r="1.5" transform="translate(36 58)" fill="#8a97f3"/>
      <circle id="Ellipse_17-10" data-name="Ellipse 17" cx="0.375" cy="0.375" r="0.375" transform="translate(42 55)" fill="#d8b6f8"/>
      <circle id="Ellipse_18-10" data-name="Ellipse 18" cx="0.375" cy="0.375" r="0.375" transform="translate(18 53)" fill="#ce97f1"/>
      <circle id="Ellipse_20-10" data-name="Ellipse 20" cx="0.375" cy="0.375" r="0.375" transform="translate(5 38)" fill="#b9ebb5"/>
      <circle id="Ellipse_21-10" data-name="Ellipse 21" cx="1.5" cy="1.5" r="1.5" transform="translate(0 32)" fill="#9e31e2"/>
      <circle id="Ellipse_19-10" data-name="Ellipse 19" cx="1.5" cy="1.5" r="1.5" transform="translate(11 54)" fill="#9e31e2"/>
    </g>
    <g id="Group_34" data-name="Group 34" transform="translate(2013 1240.793)">
      <ellipse id="Ellipse_8-11" data-name="Ellipse 8" cx="0.25" cy="0.375" rx="0.25" ry="0.375" transform="translate(10 12)" fill="#c27aea"/>
      <circle id="Ellipse_9-11" data-name="Ellipse 9" cx="1.25" cy="1.25" r="1.25" transform="translate(9 3)" fill="#9e31e2"/>
      <circle id="Ellipse_10-11" data-name="Ellipse 10" cx="0.25" cy="0.25" r="0.25" transform="translate(31 2)" fill="#b1b7fa"/>
      <circle id="Ellipse_11-11" data-name="Ellipse 11" cx="1.25" cy="1.25" r="1.25" transform="translate(38)" fill="#add6ca"/>
      <circle id="Ellipse_12-11" data-name="Ellipse 12" cx="0.25" cy="0.25" r="0.25" transform="translate(56 17)" fill="#f4bb32"/>
      <circle id="Ellipse_13-11" data-name="Ellipse 13" cx="1.25" cy="1.25" r="1.25" transform="translate(63 19)" fill="#eaac6a"/>
      <circle id="Ellipse_14-11" data-name="Ellipse 14" cx="0.25" cy="0.25" r="0.25" transform="translate(59 37)" fill="#2dcb8e"/>
      <circle id="Ellipse_15-11" data-name="Ellipse 15" cx="1.25" cy="1.25" r="1.25" transform="translate(62 44)" fill="#5bc493"/>
      <circle id="Ellipse_16-11" data-name="Ellipse 16" cx="1.25" cy="1.25" r="1.25" transform="translate(36 58)" fill="#8a97f3"/>
      <circle id="Ellipse_17-11" data-name="Ellipse 17" cx="0.25" cy="0.25" r="0.25" transform="translate(42 55)" fill="#d8b6f8"/>
      <circle id="Ellipse_18-11" data-name="Ellipse 18" cx="0.25" cy="0.25" r="0.25" transform="translate(18 53)" fill="#ce97f1"/>
      <circle id="Ellipse_20-11" data-name="Ellipse 20" cx="0.25" cy="0.25" r="0.25" transform="translate(5 38)" fill="#b9ebb5"/>
      <circle id="Ellipse_21-11" data-name="Ellipse 21" cx="1.25" cy="1.25" r="1.25" transform="translate(0 32)" fill="#9e31e2"/>
      <circle id="Ellipse_19-11" data-name="Ellipse 19" cx="1.25" cy="1.25" r="1.25" transform="translate(11 54)" fill="#9e31e2"/>
    </g>
    <g id="Group_35" data-name="Group 35" transform="translate(2113 1240.806)">
      <circle id="Ellipse_9-12" data-name="Ellipse 9" cx="1.125" cy="1.125" r="1.125" transform="translate(9 3)" fill="#a169cd"/>
      <circle id="Ellipse_11-12" data-name="Ellipse 11" cx="1.125" cy="1.125" r="1.125" transform="translate(38)" fill="#add6ca"/>
      <circle id="Ellipse_13-12" data-name="Ellipse 13" cx="1.125" cy="1.125" r="1.125" transform="translate(63 19)" fill="#eaac6a"/>
      <circle id="Ellipse_15-12" data-name="Ellipse 15" cx="1.125" cy="1.125" r="1.125" transform="translate(62 44)" fill="#5bc493"/>
      <circle id="Ellipse_16-12" data-name="Ellipse 16" cx="1.125" cy="1.125" r="1.125" transform="translate(36 58)" fill="#8a97f3"/>
      <circle id="Ellipse_21-12" data-name="Ellipse 21" cx="1.125" cy="1.125" r="1.125" transform="translate(0 32)" fill="#c55fd3"/>
      <circle id="Ellipse_19-12" data-name="Ellipse 19" cx="1.125" cy="1.125" r="1.125" transform="translate(11 54)" fill="#c55fd3"/>
    </g>
    <g id="Group_36" data-name="Group 36" transform="translate(2213 1240.818)">
      <path id="Path_1-25" data-name="Path 1" d="M1,0A1,1,0,1,1,0,1,1,1,0,0,1,1,0Z" transform="translate(9 3)" fill="#a79fb6"/>
      <circle id="Ellipse_11-13" data-name="Ellipse 11" cx="1" cy="1" r="1" transform="translate(38)" fill="#9adce6"/>
      <circle id="Ellipse_13-13" data-name="Ellipse 13" cx="1" cy="1" r="1" transform="translate(63 19)" fill="#eaac6a"/>
      <circle id="Ellipse_15-13" data-name="Ellipse 15" cx="1" cy="1" r="1" transform="translate(62 44)" fill="#5bb6c3"/>
      <circle id="Ellipse_16-13" data-name="Ellipse 16" cx="1" cy="1" r="1" transform="translate(36 58)" fill="#d4cbb9"/>
      <circle id="Ellipse_21-13" data-name="Ellipse 21" cx="1" cy="1" r="1" transform="translate(0 32)" fill="#d38fb5"/>
      <circle id="Ellipse_19-13" data-name="Ellipse 19" cx="1" cy="1" r="1" transform="translate(11 54)" fill="#d38fb5"/>
    </g>
    <g id="Group_37" data-name="Group 37" transform="translate(2313 1240.818)">
      <path id="Path_1-26" data-name="Path 1" d="M1,0A1,1,0,1,1,0,1,1,1,0,0,1,1,0Z" transform="translate(9 3)" fill="#95c18f"/>
      <circle id="Ellipse_11-14" data-name="Ellipse 11" cx="1" cy="1" r="1" transform="translate(38)" fill="#9adce6"/>
      <circle id="Ellipse_13-14" data-name="Ellipse 13" cx="1" cy="1" r="1" transform="translate(63 19)" fill="#eaac6a"/>
      <circle id="Ellipse_15-14" data-name="Ellipse 15" cx="1" cy="1" r="1" transform="translate(62 44)" fill="#5bb6c3"/>
      <circle id="Ellipse_16-14" data-name="Ellipse 16" cx="1" cy="1" r="1" transform="translate(36 58)" fill="#cbea8c"/>
      <circle id="Ellipse_21-14" data-name="Ellipse 21" cx="1" cy="1" r="1" transform="translate(0 32)" fill="#e0a19f"/>
      <circle id="Ellipse_19-14" data-name="Ellipse 19" cx="1" cy="1" r="1" transform="translate(11 54)" fill="#e0a19f"/>
    </g>
    <g id="Group_38" data-name="Group 38" transform="translate(2413 1240.831)">
      <path id="Path_1-27" data-name="Path 1" d="M.875,0A.875.875,0,1,1,0,.875.875.875,0,0,1,.875,0Z" transform="translate(9 3)" fill="#b9f7a5"/>
      <circle id="Ellipse_11-15" data-name="Ellipse 11" cx="0.875" cy="0.875" r="0.875" transform="translate(38)" fill="#9adce6"/>
      <circle id="Ellipse_13-15" data-name="Ellipse 13" cx="0.875" cy="0.875" r="0.875" transform="translate(63 19)" fill="#eaac6a"/>
      <circle id="Ellipse_15-15" data-name="Ellipse 15" cx="0.875" cy="0.875" r="0.875" transform="translate(62 44)" fill="#5bb6c3"/>
      <circle id="Ellipse_16-15" data-name="Ellipse 16" cx="0.875" cy="0.875" r="0.875" transform="translate(36 58)" fill="#cbea8c"/>
      <circle id="Ellipse_21-15" data-name="Ellipse 21" cx="0.875" cy="0.875" r="0.875" transform="translate(0 32)" fill="#f7c092"/>
      <circle id="Ellipse_19-15" data-name="Ellipse 19" cx="0.875" cy="0.875" r="0.875" transform="translate(11 54)" fill="#f7c092"/>
    </g>
    <g id="Group_39" data-name="Group 39" transform="translate(2513 1240.855)">
      <path id="Path_1-28" data-name="Path 1" d="M.625,0A.625.625,0,1,1,0,.625.625.625,0,0,1,.625,0Z" transform="translate(9 3)" fill="#b9f7a5"/>
      <circle id="Ellipse_11-16" data-name="Ellipse 11" cx="0.625" cy="0.625" r="0.625" transform="translate(38)" fill="#9adce6"/>
      <circle id="Ellipse_13-16" data-name="Ellipse 13" cx="0.625" cy="0.625" r="0.625" transform="translate(63 19)" fill="#eaac6a"/>
      <circle id="Ellipse_15-16" data-name="Ellipse 15" cx="0.625" cy="0.625" r="0.625" transform="translate(62 44)" fill="#5bb6c3"/>
      <circle id="Ellipse_16-16" data-name="Ellipse 16" cx="0.625" cy="0.625" r="0.625" transform="translate(36 58)" fill="#cbea8c"/>
      <circle id="Ellipse_21-16" data-name="Ellipse 21" cx="0.625" cy="0.625" r="0.625" transform="translate(0 32)" fill="#f7c092"/>
      <circle id="Ellipse_19-16" data-name="Ellipse 19" cx="0.625" cy="0.625" r="0.625" transform="translate(11 54)" fill="#f7c092"/>
    </g>
    <g id="Group_40" data-name="Group 40" transform="translate(2613 1240.878)">
      <path id="Path_1-29" data-name="Path 1" d="M.375,0A.375.375,0,1,1,0,.375.375.375,0,0,1,.375,0Z" transform="translate(9 3)" fill="#b9f7a5"/>
      <circle id="Ellipse_11-17" data-name="Ellipse 11" cx="0.375" cy="0.375" r="0.375" transform="translate(38)" fill="#9adce6"/>
      <circle id="Ellipse_13-17" data-name="Ellipse 13" cx="0.375" cy="0.375" r="0.375" transform="translate(63 19)" fill="#eaac6a"/>
      <circle id="Ellipse_15-17" data-name="Ellipse 15" cx="0.375" cy="0.375" r="0.375" transform="translate(62 44)" fill="#5bb6c3"/>
      <circle id="Ellipse_16-17" data-name="Ellipse 16" cx="0.375" cy="0.375" r="0.375" transform="translate(36 58)" fill="#cbea8c"/>
      <circle id="Ellipse_21-17" data-name="Ellipse 21" cx="0.375" cy="0.375" r="0.375" transform="translate(0 32)" fill="#f7c092"/>
      <circle id="Ellipse_19-17" data-name="Ellipse 19" cx="0.375" cy="0.375" r="0.375" transform="translate(11 54)" fill="#f7c092"/>
    </g>
    <g id="Group_41" data-name="Group 41" transform="translate(2713 1240.89)">
      <path id="Path_1-30" data-name="Path 1" d="M.25,0A.25.25,0,1,1,0,.25.25.25,0,0,1,.25,0Z" transform="translate(9 3)" fill="#b9f7a5"/>
      <circle id="Ellipse_11-18" data-name="Ellipse 11" cx="0.25" cy="0.25" r="0.25" transform="translate(38)" fill="#9adce6"/>
      <circle id="Ellipse_13-18" data-name="Ellipse 13" cx="0.25" cy="0.25" r="0.25" transform="translate(63 19)" fill="#eaac6a"/>
      <circle id="Ellipse_15-18" data-name="Ellipse 15" cx="0.25" cy="0.25" r="0.25" transform="translate(62 44)" fill="#5bb6c3"/>
      <circle id="Ellipse_16-18" data-name="Ellipse 16" cx="0.25" cy="0.25" r="0.25" transform="translate(36 58)" fill="#cbea8c"/>
      <circle id="Ellipse_21-18" data-name="Ellipse 21" cx="0.25" cy="0.25" r="0.25" transform="translate(0 32)" fill="#f7c092"/>
      <circle id="Ellipse_19-18" data-name="Ellipse 19" cx="0.25" cy="0.25" r="0.25" transform="translate(11 54)" fill="#f7c092"/>
    </g>
    <rect id="Rectangle_18" data-name="Rectangle 18" width="100" height="96" transform="translate(2797 1219)" fill="none"/>
  </g>
</svg>
