<svg xmlns="http://www.w3.org/2000/svg" width="512.009" height="405.354" viewBox="0 0 512.009 405.354">
  <g id="left-arrow" transform="translate(0 -53.327)">
    <path id="Path_3" data-name="Path 3" d="M501.342,245.185H36.424L210.227,71.4a10.667,10.667,0,0,0-15.082-15.083l-192,192a10.667,10.667,0,0,0-.019,15.085l.019.019,192,192A10.667,10.667,0,0,0,210.49,440.6c-.086-.089-.173-.176-.262-.262L36.424,266.519H501.341a10.667,10.667,0,0,0,0-21.334Z" fill="none"/>
    <path id="Path_4" data-name="Path 4" d="M202.675,458.519a10.663,10.663,0,0,1-7.552-3.115l-192-192a10.667,10.667,0,0,1,0-15.083l192-192A10.667,10.667,0,0,1,210.206,71.4L25.758,255.852,210.206,440.3a10.667,10.667,0,0,1-7.531,18.219Z" fill="#fff"/>
    <path id="Path_5" data-name="Path 5" d="M501.342,266.519H10.675a10.667,10.667,0,1,1,0-21.334H501.342a10.667,10.667,0,0,1,0,21.334Z" fill="#fff"/>
  </g>
</svg>
