<svg xmlns="http://www.w3.org/2000/svg" width="512.009" height="405.143" viewBox="0 0 512.009 405.143">
  <g id="left-arrow" transform="translate(0 -53.376)">
    <path id="Path_4" data-name="Path 4" d="M202.675,458.519a10.663,10.663,0,0,1-7.552-3.115l-192-192a10.667,10.667,0,0,1,0-15.083l192-192A10.667,10.667,0,0,1,210.206,71.4L25.758,255.852,210.206,440.3a10.667,10.667,0,0,1-7.531,18.219Z" fill="#1a8df2"/>
    <path id="Path_5" data-name="Path 5" d="M501.342,266.519H10.675a10.667,10.667,0,0,1,0-21.334H501.342a10.667,10.667,0,0,1,0,21.334Z" fill="#1a8df2"/>
  </g>
</svg>
