<svg xmlns="http://www.w3.org/2000/svg" width="272" height="368.16" viewBox="0 0 272 368.16">
  <g id="pin" transform="translate(-48.08)">
    <g id="Group_45" data-name="Group 45">
      <g id="Group_44" data-name="Group 44">
        <path id="Path_6" data-name="Path 6" d="M184.08,0c-74.992,0-136,61.008-136,136,0,24.688,11.072,51.24,11.536,52.36a219.32,219.32,0,0,0,15.72,29.4l93.248,141.288c3.816,5.792,9.464,9.112,15.5,9.112s11.68-3.32,15.5-9.1l93.256-141.3a218.41,218.41,0,0,0,15.72-29.4c.464-1.112,11.528-27.664,11.528-52.36C320.08,61.008,259.072,0,184.08,0ZM293.8,182.152a200.958,200.958,0,0,1-14.328,26.8l-93.256,141.3c-1.84,2.792-2.424,2.792-4.264,0L88.7,208.952a201.051,201.051,0,0,1-14.328-26.808C74.232,181.816,64.08,157.376,64.08,136a120,120,0,0,1,240,0C304.08,157.408,293.9,181.912,293.8,182.152Z" fill="#8899a6"/>
        <path id="Path_7" data-name="Path 7" d="M184.08,64.008a72,72,0,1,0,72,72A72.083,72.083,0,0,0,184.08,64.008Zm0,128a56,56,0,1,1,56-56A56.067,56.067,0,0,1,184.08,192.008Z" fill="#8899a6"/>
      </g>
    </g>
  </g>
</svg>
