<svg xmlns="http://www.w3.org/2000/svg" width="322.558" height="305.355" viewBox="0 0 322.558 305.355">
  <g id="clean" transform="translate(0 -8.601)">
    <g id="Group_2" data-name="Group 2">
      <g id="Group_1" data-name="Group 1">
        <path id="Path_1" data-name="Path 1" d="M321.6,180.6c-.8-1.6-2.8-2.4-4.4-2.8-9.2,0-88.4-3.2-88.4-95.2a5.2,5.2,0,0,0-10.4,0c0,92-79.2,95.2-88,95.2a4.542,4.542,0,0,0-3.2,1.2c-.8.4-1.2,1.2-1.6,1.6a5.933,5.933,0,0,0,0,5.2,5.549,5.549,0,0,0,4.8,2.8h.4c9.2,0,88,3.2,88,95.2a5.2,5.2,0,1,0,10.4,0c0-91.6,78.8-95.2,88-95.2a6.1,6.1,0,0,0,4.8-2.8A4.919,4.919,0,0,0,321.6,180.6Zm-98,64c-11.6-38-40-54.4-62.4-61.6,22.4-7.2,50.8-23.6,62.4-61.6,11.6,38,40,54.4,62.4,61.6C263.6,190.2,235.2,206.6,223.6,244.6Z" fill="#4aa1eb"/>
        <path id="Path_2" data-name="Path 2" d="M157.6,76.6a5.39,5.39,0,0,0,5.2-5.6,5.3,5.3,0,0,0-5.2-5.2c-4.8,0-48-1.6-48-52a5.2,5.2,0,1,0-10.4,0c0,50.4-43.2,52-48,52h-.4A5.22,5.22,0,0,0,46,71a5.3,5.3,0,0,0,5.2,5.2c5.2,0,48,1.6,48,52a5.3,5.3,0,0,0,5.2,5.2c2.4.4,4.8-2,4.8-4.8,0-50.4,43.2-52,48-52h.4ZM104,99.4C97.6,84.2,86,75.8,75.2,71A53.816,53.816,0,0,0,104,42.6c6.4,15.2,18,23.6,28.8,28.4A53.816,53.816,0,0,0,104,99.4Z" fill="#4aa1eb"/>
        <path id="Path_3" data-name="Path 3" d="M111.6,246.2c-4.8,0-48-1.6-48-52a5.2,5.2,0,0,0-10.4,0c0,50.4-43.2,52-48,52H4.8A5.22,5.22,0,0,0,0,251.4a5.3,5.3,0,0,0,5.2,5.2c5.2,0,48,1.6,48,52a5.3,5.3,0,0,0,5.2,5.2c2.4.8,4.8-1.6,4.8-4.8,0-50.4,43.2-52,48-52h.4a5.39,5.39,0,0,0,5.2-5.6A5.3,5.3,0,0,0,111.6,246.2ZM58,280.2c-6.8-15.2-18-23.6-28.8-28.4A53.816,53.816,0,0,0,58,223.4c6.4,15.2,18,23.6,28.8,28.4A53.816,53.816,0,0,0,58,280.2Z" fill="#4aa1eb"/>
      </g>
    </g>
  </g>
</svg>
