<svg xmlns="http://www.w3.org/2000/svg" width="511.072" height="450" viewBox="0 0 511.072 450">
  <g id="Speech_Bubble_48_" transform="translate(0 -30.536)">
    <g id="Group_1" data-name="Group 1">
      <path id="Path_1" data-name="Path 1" d="M74.39,480.536H38.177l25.607-25.607a86.653,86.653,0,0,0,24.747-51.246C52.5,380.039,26.156,348.932,12.053,313.258-2.04,277.611-3.811,238.37,6.932,199.776c12.89-46.309,43.123-88.518,85.128-118.853C137.706,47.96,194.53,30.536,256.39,30.536c77.927,0,143.611,22.389,189.948,64.745,41.744,38.159,64.734,89.63,64.734,144.933a192.934,192.934,0,0,1-16.26,77.7,199.913,199.913,0,0,1-48.593,67.619c-46.4,42.523-112.042,65-189.83,65a345.4,345.4,0,0,1-85.913-10.929A134.19,134.19,0,0,1,74.39,480.536Zm182-420c-124.039,0-200.15,73.973-220.557,147.285-19.284,69.28,9.143,134.743,76.043,175.115l7.475,4.511-.23,8.727a118.127,118.127,0,0,1-11.945,48.952,106.263,106.263,0,0,0,46.99-32.151l6.342-7.493,9.4,2.813c26.393,7.894,57.1,12.241,86.477,12.241,154.372,0,224.682-93.473,224.682-180.322,0-46.776-19.524-90.384-54.976-122.79C385.383,80.208,326.7,60.536,256.39,60.536Z" fill="#fff"/>
    </g>
  </g>
</svg>
