<svg xmlns="http://www.w3.org/2000/svg" xmlns:xlink="http://www.w3.org/1999/xlink" width="769" height="1500" viewBox="0 0 769 1500">
  <defs>
    <clipPath id="clip-Canvas">
      <rect width="769" height="1500"/>
    </clipPath>
  </defs>
  <g id="Canvas" clip-path="url(#clip-Canvas)">
    <rect width="769" height="1500" fill="rgba(0,0,0,0)"/>
    <path id="Logo_FIXED" data-name="Logo — FIXED" d="M529.017,1373.807c544.794,0,842.718-490.407,842.718-915.65q0-20.9-.846-41.605c57.827-45.423,108.1-102.1,147.758-166.628a554.952,554.952,0,0,1-170.093,50.661c61.147-39.835,108.1-102.877,130.24-178.021a565.8,565.8,0,0,1-188.067,78.114C1236.676,138.126,1159.7,99,1074.528,99,910.946,99,778.3,243.129,778.3,420.8a347.912,347.912,0,0,0,7.685,73.377C539.826,480.729,321.544,352.661,175.48,157.94a342.152,342.152,0,0,0-40.114,161.748c0,111.653,52.292,210.216,131.8,267.878-48.58-1.623-94.229-16.13-134.147-40.257-.065,1.343-.065,2.69-.065,4.1,0,155.875,102.109,286,237.623,315.5a272.858,272.858,0,0,1-133.757,5.515c37.7,127.856,147.041,220.9,276.7,223.522-101.392,86.32-229.092,137.759-367.863,137.759A555.531,555.531,0,0,1,75,1229.255c131.086,91.274,286.724,144.552,454.017,144.552" transform="translate(-167 -189.999)" fill="#1da1f2"/>
  </g>
</svg>
