<svg xmlns="http://www.w3.org/2000/svg" width="512.002" height="366.726" viewBox="0 0 512.002 366.726">
  <g id="users_1_" data-name="users (1)" transform="translate(0 -72.637)">
    <path id="Path_1" data-name="Path 1" d="M423.1,292.761a85.489,85.489,0,1,0-101,0A140.151,140.151,0,0,0,281.3,317.5a153.954,153.954,0,0,1,19.018,25.111,107.739,107.739,0,0,1,179.1,65.177H322.47c0,4.8.739,9.232.739,14.494v1.292H233.29a15.786,15.786,0,0,0,15.787,15.787H496.215A15.792,15.792,0,0,0,512,423.576V422.56A139.486,139.486,0,0,0,423.1,292.761ZM372.6,169.977a53.914,53.914,0,1,1-53.914,53.914h0A54.006,54.006,0,0,1,372.6,169.977Z" fill="#fff"/>
    <path id="Path_2" data-name="Path 2" d="M223.5,261.927a102.473,102.473,0,1,0-108.936,0A169.68,169.68,0,0,0,0,422.284v1.292a15.791,15.791,0,0,0,15.787,15.786H323.116A15.791,15.791,0,0,0,338.9,423.576v-1.292A169.682,169.682,0,0,0,223.5,261.927ZM169.036,104.339a70.993,70.993,0,1,1-70.993,70.993v-.092A71,71,0,0,1,169.036,104.339ZM31.85,407.79a137.925,137.925,0,0,1,274.372,0Z" fill="#fff"/>
  </g>
</svg>
