<svg xmlns="http://www.w3.org/2000/svg" width="511.999" height="510.767" viewBox="0 0 511.999 510.767">
  <g id="search" transform="translate(0 -0.616)">
    <g id="Group_2" data-name="Group 2">
      <g id="Group_1" data-name="Group 1">
        <path id="Path_1" data-name="Path 1" d="M225.773.616C101.283.616,0,101.622,0,225.773S101.284,450.93,225.773,450.93,451.547,349.924,451.547,225.773,350.263.616,225.773.616Zm0,413.3c-104.084,0-188.761-84.406-188.761-188.145S121.689,37.627,225.773,37.627s188.761,84.4,188.761,188.145S329.858,413.917,225.773,413.917Z" fill="#fff"/>
      </g>
    </g>
    <g id="Group_4" data-name="Group 4">
      <g id="Group_3" data-name="Group 3">
        <path id="Path_2" data-name="Path 2" d="M506.547,479.756,385.024,358.85a18.508,18.508,0,0,0-26.106,26.242L480.441,506a18.508,18.508,0,1,0,26.106-26.242Z" fill="#fff"/>
      </g>
    </g>
  </g>
</svg>
